<svg xmlns="http://www.w3.org/2000/svg" viewBox="0 0 1000 680" preserveAspectRatio="xMidYMid slice">
  <defs>
    <linearGradient id="sky" x1="0" x2="0" y1="0" y2="1">
      <stop offset="0%" stop-color="#7a9ad6"/>
      <stop offset="45%" stop-color="#d2a3c8"/>
      <stop offset="75%" stop-color="#f2c6a6"/>
      <stop offset="100%" stop-color="#f8d7b6"/>
    </linearGradient>
    <linearGradient id="ground" x1="0" x2="0" y1="0" y2="1">
      <stop offset="0%" stop-color="#d9b58a"/>
      <stop offset="60%" stop-color="#c59b72"/>
      <stop offset="100%" stop-color="#b4875e"/>
    </linearGradient>
    <radialGradient id="sunGlow" cx="0.8" cy="0.45" r="0.5">
      <stop offset="0%" stop-color="#fff2d6" stop-opacity="0.85"/>
      <stop offset="40%" stop-color="#ffe2b4" stop-opacity="0.45"/>
      <stop offset="100%" stop-color="#ffe2b4" stop-opacity="0"/>
    </radialGradient>
    <g id="bush-round-1" fill="#8fa084">
      <circle cx="-28" cy="6" r="12"/>
      <circle cx="-10" cy="2" r="14"/>
      <circle cx="10" cy="-2" r="16"/>
      <circle cx="30" cy="4" r="13"/>
      <circle cx="48" cy="10" r="10"/>
      <rect x="-40" y="6" width="90" height="18" rx="9"/>
    </g>
    <g id="bush-round-2" fill="#7f9476">
      <circle cx="-26" cy="6" r="11"/>
      <circle cx="-10" cy="2" r="13"/>
      <circle cx="10" cy="-2" r="15"/>
      <circle cx="28" cy="4" r="12"/>
      <circle cx="44" cy="10" r="9"/>
      <rect x="-36" y="6" width="82" height="18" rx="9"/>
    </g>
    <g id="bush-round-3" fill="#8b9b80">
      <circle cx="-26" cy="6" r="11"/>
      <circle cx="-8" cy="2" r="13"/>
      <circle cx="12" cy="-2" r="15"/>
      <circle cx="30" cy="4" r="12"/>
      <circle cx="46" cy="10" r="9"/>
      <rect x="-36" y="6" width="84" height="18" rx="9"/>
    </g>
    <g id="bush-tuft-1" fill="#6f8666">
      <path d="M-10 14 Q-4 -10 2 14 Z"/>
      <path d="M0 14 Q6 -14 12 14 Z"/>
      <path d="M10 14 Q16 -8 22 14 Z"/>
    </g>
    <g id="bush-tuft-2" fill="#657a5c">
      <path d="M-10 14 Q-2 -10 6 14 Z"/>
      <path d="M2 14 Q10 -14 18 14 Z"/>
      <path d="M12 14 Q18 -8 26 14 Z"/>
    </g>
  </defs>

  <rect width="1000" height="680" fill="url(#sky)"/>
  <rect y="260" width="1000" height="420" fill="url(#ground)"/>
  <rect width="1000" height="680" fill="url(#sunGlow)"/>

  <g opacity="0.9">
    <path d="M280 260 L325 208 L390 192 L470 190 L550 194 L610 202 L675 214 L720 260 Z" fill="#c28b63"/>
    <path d="M340 260 L390 210 L470 202 L550 206 L610 220 L660 260 Z" fill="#b57b55"/>
  </g>

  <g opacity="0.85">
    <use href="#bush-round-1" transform="translate(50 300) scale(1.5)"/>
    <use href="#bush-tuft-1" transform="translate(320 400) scale(3)"/>
    <use href="#bush-round-2" transform="translate(520 450) scale(1.5)"/>
    <use href="#bush-tuft-2" transform="translate(800 350) scale(3)"/>
    <use href="#bush-round-3" transform="translate(920 470) scale(1.2)"/>

    <use href="#bush-round-2" transform="translate(220 500) scale(1.3)"/>
    <use href="#bush-tuft-1" transform="translate(520 580) scale(3)"/>
    <use href="#bush-round-1" transform="translate(720 500) scale(1.5)"/>


    <use href="#bush-tuft-2" transform="translate(150 620) scale(3)"/>
    <use href="#bush-tuft-1" transform="translate(860 600) scale(3)"/>
  </g>
</svg>
